name C:\Users\u0101727\Documents\MyRepositories\upper-imu-dc\Results\main_tracking\Case_95\kinematics.mot
datacolumns 43
datarows 6
range 3.74000000 3.84000000
endheader 
time	clav_prot	clav_elev	scapula_abduction	scapula_elevation	scapula_upward_rot	scapula_winging	plane_elv	shoulder_elv	axial_rot	TrapeziusScapula_M/activation	TrapeziusScapula_S/activation	TrapeziusScapula_I/activation	TrapeziusClavicle_S/activation	SerratusAnterior_I/activation	SerratusAnterior_M/activation	SerratusAnterior_S/activation	Rhomboideus_S/activation	Rhomboideus_I/activation	LevatorScapulae/activation	Coracobrachialis/activation	DeltoideusClavicle_A/activation	DeltoideusScapula_P/activation	DeltoideusScapula_M/activation	LatissimusDorsi_S/activation	LatissimusDorsi_M/activation	LatissimusDorsi_I/activation	PectoralisMajorClavicle_S/activation	PectoralisMajorThorax_I/activation	PectoralisMajorThorax_M/activation	TeresMajor/activation	Infraspinatus_I/activation	Infraspinatus_S/activation	PectoralisMinor/activation	TeresMinor/activation	Subscapularis_S/activation	Subscapularis_M/activation	Subscapularis_I/activation	Supraspinatus_P/activation	Supraspinatus_A/activation	TRIlong/activation	BIC_long/activation	BIC_brevis/activation	
          3.74000000	        -23.14869783	         -5.35239245	         -8.26210923	         -6.82967422	         21.04753208	          3.85625180	        -24.35484011	         41.30758561	         14.67392833	          0.01003908	          0.05829291	          0.01000114	          0.02647889	          0.04487512	          0.06568398	          0.01000379	          0.01133486	          0.01006932	          0.02297228	          0.01030214	          0.05165229	          0.01000137	          0.08015828	          0.01000128	          0.01000097	          0.01000246	          0.03478568	          0.01000115	          0.01774220	          0.01000012	          0.01990004	          0.02497378	          0.01000092	          0.01001647	          0.01000739	          0.01000158	          0.01000121	          0.02176614	          0.03750003	          0.01000001	          0.06382903	          0.01502516	
          3.76000000	        -23.03538457	         -5.27187735	         -8.07396038	         -6.76600751	         21.06473075	          3.81539080	        -23.84893232	         42.36288407	         13.72022034	          0.01003860	          0.05904980	          0.01000101	          0.02712845	          0.04551317	          0.06644327	          0.01000347	          0.01192476	          0.01003629	          0.02363601	          0.01062696	          0.05274632	          0.01000129	          0.08207795	          0.01000128	          0.01000090	          0.01000221	          0.03475731	          0.01000096	          0.01661963	          0.01000011	          0.02024525	          0.02490814	          0.01000082	          0.01001533	          0.01000712	          0.01000164	          0.01000121	          0.02233034	          0.03850058	          0.01000000	          0.06464392	          0.01532706	
          3.78000000	        -22.98384208	         -5.18947852	         -7.99758092	         -6.70301450	         21.07465652	          3.77761502	        -23.34170889	         43.42678036	         12.77505848	          0.01004734	          0.06044498	          0.01000107	          0.02749913	          0.04616984	          0.06807556	          0.01000351	          0.01174597	          0.01004649	          0.02388727	          0.01100348	          0.05412944	          0.01000136	          0.08487724	          0.01000117	          0.01000089	          0.01000198	          0.03471916	          0.01000110	          0.01563603	          0.01000011	          0.02060015	          0.02493605	          0.01000086	          0.01001443	          0.01000959	          0.01000158	          0.01000119	          0.02297991	          0.03972201	          0.01000001	          0.06577107	          0.01563687	
          3.80000000	        -22.94703995	         -5.10953015	         -7.94452875	         -6.64331670	         21.08702552	          3.74098090	        -22.83434669	         44.49915320	         11.83813989	          0.01004102	          0.06114036	          0.01000106	          0.02812459	          0.04705852	          0.06878572	          0.01000329	          0.01234922	          0.01003256	          0.02428967	          0.01143040	          0.05546140	          0.01000128	          0.08637498	          0.01000125	          0.01000077	          0.01000181	          0.03481061	          0.01000085	          0.01451131	          0.01000009	          0.02043300	          0.02507791	          0.01000076	          0.01001354	          0.01000881	          0.01000165	          0.01000120	          0.02412007	          0.04135807	          0.01000000	          0.06746969	          0.01606547	
          3.82000000	        -22.92892772	         -5.03253024	         -7.91574773	         -6.58950392	         21.11067098	          3.70381024	        -22.32695956	         45.57773660	         10.90657263	          0.01005531	          0.06270714	          0.01000119	          0.02821259	          0.04753098	          0.07027052	          0.01000321	          0.01176020	          0.01003870	          0.02439812	          0.01198685	          0.05646444	          0.01000134	          0.08898539	          0.01000117	          0.01000077	          0.01000159	          0.03441378	          0.01000102	          0.01371929	          0.01000008	          0.02120716	          0.02484703	          0.01000082	          0.01001230	          0.01001276	          0.01000155	          0.01000118	          0.02395086	          0.04192039	          0.01000000	          0.06728719	          0.01589633	
          3.84000000	        -22.93129222	         -4.95803253	         -7.91038197	         -6.54273195	         21.15178217	          3.66453718	        -21.81972352	         46.66197167	          9.98555514	          0.01005240	          0.06275508	          0.01000131	          0.02889943	          0.04834253	          0.07048578	          0.01000309	          0.01260684	          0.01002762	          0.02469961	          0.01246902	          0.05765984	          0.01000127	          0.08992443	          0.01000127	          0.01000066	          0.01000161	          0.03427205	          0.01000089	          0.01181915	          0.01000005	          0.02101019	          0.02456436	          0.01000074	          0.01001144	          0.01001203	          0.01000159	          0.01000119	          0.02512968	          0.04343120	          0.01000000	          0.06852616	          0.01660897	
